<svg width="32" height="32" viewBox="0 0 32 32" fill="none" xmlns="http://www.w3.org/2000/svg">
<g clip-path="url(#clip0)">
<path d="M27.3368 4.65026C24.3286 1.65324 20.3286 0.00182855 16.0669 0C7.28497 0 0.138251 7.113 0.134736 15.8559C0.133712 18.6506 0.867157 21.3786 2.26124 23.7833L0.000976562 32L8.44679 29.7951C10.7738 31.0586 13.3938 31.7244 16.06 31.7255H16.0668H16.0669C24.8474 31.7255 31.9952 24.6112 31.9989 15.8687C32.0004 11.6315 30.3446 7.64748 27.3368 4.65026ZM16.0669 29.0473H16.0617C13.6852 29.0461 11.3546 28.4108 9.32187 27.2099L8.8381 26.9244L3.82618 28.2327L5.16429 23.3694L4.8491 22.8708C3.52345 20.7722 2.82361 18.3471 2.82461 15.8569C2.82752 8.5901 8.7676 2.67822 16.0719 2.67822C19.609 2.67968 22.9335 4.05235 25.4338 6.54338C27.934 9.03438 29.3098 12.3458 29.3088 15.8676C29.3057 23.1347 23.3654 29.0473 16.0669 29.0473Z" fill="#E0E0E0"/>
<path d="M0.732544 31.0884L2.88956 23.247C1.55882 20.9521 0.859009 18.3485 0.859849 15.682C0.863338 7.33866 7.68366 0.550781 16.0637 0.550781C20.1309 0.55261 23.9483 2.1285 26.8184 4.98869C29.6892 7.84885 31.2692 11.6506 31.2675 15.6938C31.264 24.0374 24.4433 30.8259 16.0643 30.8259C16.0637 30.8259 16.0647 30.8259 16.0643 30.8259H16.0575C13.5131 30.8251 11.0129 30.1892 8.79241 28.9843L0.732544 31.0884Z" fill="url(#paint0_linear)"/>
<path fill-rule="evenodd" clip-rule="evenodd" d="M12.1294 9.12424C11.8346 8.47179 11.5243 8.45873 11.2439 8.44731C11.0145 8.43752 10.7519 8.43812 10.4898 8.43812C10.2274 8.43812 9.80102 8.53628 9.44046 8.92832C9.07969 9.32037 8.06299 10.2681 8.06299 12.1956C8.06299 14.1234 9.47326 15.986 9.66983 16.2476C9.86661 16.5088 12.3922 20.5908 16.392 22.1612C19.7161 23.4663 20.3926 23.2067 21.1141 23.1414C21.8357 23.0761 23.4423 22.1939 23.7703 21.279C24.0982 20.3643 24.0982 19.5802 23.9998 19.4163C23.9014 19.2531 23.6391 19.1551 23.2455 18.9592C22.8519 18.7633 20.9173 17.8153 20.5566 17.6847C20.1958 17.5541 19.9334 17.4888 19.6711 17.8811C19.4087 18.2729 18.655 19.1551 18.4254 19.4163C18.1958 19.6781 17.9662 19.7108 17.5727 19.5149C17.1791 19.3184 15.9117 18.9051 14.4082 17.5704C13.2383 16.5321 12.4485 15.2496 12.219 14.8574C11.9894 14.4656 12.1944 14.2533 12.3918 14.058C12.5684 13.8825 12.7853 13.6007 12.9821 13.3719C13.1785 13.1431 13.2441 12.9798 13.3753 12.7186C13.5064 12.457 13.4408 12.2282 13.3425 12.0323C13.2441 11.8364 12.4793 9.89892 12.1294 9.12424Z" fill="white"/>
<path d="M27.2055 4.59982C24.2318 1.63721 20.2777 0.00478436 16.065 0.00292969C7.38384 0.00292969 0.319172 7.03427 0.315683 15.6768C0.314659 18.4394 1.03968 21.1361 2.41776 23.5132L0.183472 31.6356L8.53234 29.456C10.8326 30.7049 13.4226 31.3631 16.0582 31.3641H16.0649H16.065C24.7447 31.3641 31.8104 24.3316 31.8141 15.6894C31.8155 11.5009 30.1787 7.56264 27.2055 4.59982ZM16.065 28.7168H16.0599C13.7106 28.7156 11.4068 28.0877 9.39736 26.9006L8.91913 26.6183L3.96475 27.9116L5.28749 23.1041L4.97592 22.6112C3.66548 20.5368 2.97368 18.1394 2.9747 15.6778C2.97756 8.49447 8.84945 2.65046 16.0699 2.65046C19.5665 2.65189 22.8527 4.00881 25.3244 6.47123C27.7958 8.93366 29.1559 12.2071 29.1549 15.6885C29.1518 22.872 23.2797 28.7168 16.065 28.7168Z" fill="white"/>
</g>
<defs>
<linearGradient id="paint0_linear" x1="16" y1="31.0884" x2="16" y2="0.550832" gradientUnits="userSpaceOnUse">
<stop stop-color="#20B038"/>
<stop offset="1" stop-color="#60D66A"/>
</linearGradient>
<clipPath id="clip0">
<rect width="32" height="32" fill="white"/>
</clipPath>
</defs>
</svg>
